<svg width="48" height="48" viewBox="0 0 48 48" fill="none" xmlns="http://www.w3.org/2000/svg">
<g clip-path="url(#clip0_126_4086)">
<path d="M6 18C6 15.8783 6.84285 13.8434 8.34315 12.3431C9.84344 10.8429 11.8783 10 14 10H34C36.1217 10 38.1566 10.8429 39.6569 12.3431C41.1571 13.8434 42 15.8783 42 18V30C42 32.1217 41.1571 34.1566 39.6569 35.6569C38.1566 37.1571 36.1217 38 34 38H14C11.8783 38 9.84344 37.1571 8.34315 35.6569C6.84285 34.1566 6 32.1217 6 30V18Z" stroke="#E0E0E0" stroke-width="1.5" stroke-linecap="round" stroke-linejoin="round"/>
<path d="M20 18L30 24L20 30V18Z" stroke="#E0E0E0" stroke-width="1.5" stroke-linecap="round" stroke-linejoin="round"/>
</g>
<defs>
<clipPath id="clip0_126_4086">
<rect width="48" height="48" fill="white"/>
</clipPath>
</defs>
</svg>
