<svg width="706" height="714" viewBox="0 0 706 714" fill="none" xmlns="http://www.w3.org/2000/svg">
<path d="M353 15C539.513 15 691 167.959 691 357C691 546.041 539.513 699 353 699C166.487 699 15 546.041 15 357C15 167.959 166.487 15 353 15Z" stroke="#606060" stroke-width="30"/>
<path d="M350 61C509.212 61 639 191.557 639 353.5C639 515.443 509.212 646 350 646C190.788 646 61 515.443 61 353.5C61 191.557 190.788 61 350 61Z" stroke="#E0E0E0" stroke-width="80"/>
<path d="M377 193L413 163L464.301 123.5L527.5 171L561 218.5L446 297.5L345.5 369.5L144 497.5L183.5 427.5L219.5 364.5L251.5 320L269 297.5L298.5 266.5L330.5 232.5L377 193Z" fill="#E0E0E0"/>
<path d="M247.5 422L338 370.5L346.5 366.5L411 362.5L489.5 357L601.5 349V395.5L550.5 398L484.5 403.5L405 410L377 415.5L352 423.5L321 438L292.5 456.5L267.5 477.5L247.5 500.5L218.5 543.5L209 563L170 535.5L143.5 498L247.5 422Z" fill="#E0E0E0"/>
</svg>
