<svg width="48" height="48" viewBox="0 0 48 48" fill="none" xmlns="http://www.w3.org/2000/svg">
<g clip-path="url(#clip0_126_4080)">
<path d="M28 38H20C15.7565 38 11.6869 36.3143 8.68629 33.3137C5.68571 30.3131 4 26.2435 4 22V12H12V22C12 24.1217 12.8429 26.1566 14.3431 27.6569C15.8434 29.1571 17.8783 30 20 30V12H28V21H28.06C30.252 20.7265 32.2687 19.6617 33.7308 18.0058C35.193 16.35 35.9999 14.217 36 12.008H44L43.316 15.43C42.9063 17.4782 42.0343 19.4057 40.7664 21.0656C39.4985 22.7255 37.8683 24.0739 36 25.008C37.8167 25.6132 39.4372 26.6958 40.692 28.1423C41.9467 29.5888 42.7895 31.346 43.132 33.23L44 38.008H36C35.9999 35.799 35.193 33.666 33.7308 32.0102C32.2687 30.3543 30.252 29.2895 28.06 29.016V38.016L28 38Z" stroke="#E0E0E0" stroke-width="1.5" stroke-linecap="round" stroke-linejoin="round"/>
</g>
<defs>
<clipPath id="clip0_126_4080">
<rect width="48" height="48" fill="white"/>
</clipPath>
</defs>
</svg>
